<svg xmlns="http://www.w3.org/2000/svg" xmlns:xlink="http://www.w3.org/1999/xlink" width="500" zoomAndPan="magnify" viewBox="0 0 375 374.999991" height="500" preserveAspectRatio="xMidYMid meet" version="1.0"><defs><g/><clipPath id="dc4d8f941e"><path d="M 33.507812 200.605469 L 350.742188 200.605469 L 350.742188 237.679688 L 33.507812 237.679688 Z M 33.507812 200.605469 " clip-rule="nonzero"/></clipPath></defs><rect x="-37.5" width="450" fill="#ffffff" y="-37.499999" height="449.999989" fill-opacity="1"/><rect x="-37.5" width="450" fill="#f4f4f4" y="-37.499999" height="449.999989" fill-opacity="1"/><g fill="#3b3937" fill-opacity="1"><g transform="translate(176.410085, 273.355588)"><g><path d="M -2.546875 43.625 L -2.546875 41.8125 L -0.359375 41.8125 C 4.484375 41.8125 8.691406 40.78125 12.265625 38.71875 C 15.847656 36.65625 18.640625 33.203125 20.640625 28.359375 C 22.640625 23.515625 23.640625 16.910156 23.640625 8.546875 L 23.640625 -115.984375 C 23.640625 -120.222656 22.484375 -123.28125 20.171875 -125.15625 C 17.867188 -127.039062 14.597656 -127.984375 10.359375 -127.984375 L 6.546875 -127.984375 L 6.546875 -129.796875 L 62.171875 -129.796875 L 62.171875 -127.984375 L 58.359375 -127.984375 C 53.992188 -127.984375 50.660156 -127.015625 48.359375 -125.078125 C 46.054688 -123.140625 44.90625 -119.867188 44.90625 -115.265625 L 44.90625 1.09375 C 44.90625 12 42.9375 20.539062 39 26.71875 C 35.0625 32.90625 29.816406 37.269531 23.265625 39.8125 C 16.722656 42.351562 9.453125 43.625 1.453125 43.625 Z M -2.546875 43.625 "/></g></g></g><g fill="#3b3937" fill-opacity="1"><g transform="translate(28.258838, 216.929235)"><g><path d="M 6.359375 0 L 6.359375 -1.8125 L 15.265625 -1.8125 C 19.390625 -1.8125 22.632812 -2.78125 25 -4.71875 C 27.363281 -6.664062 28.546875 -9.878906 28.546875 -14.359375 L 28.546875 -115.984375 C 28.546875 -120.222656 27.363281 -123.28125 25 -125.15625 C 22.632812 -127.039062 19.390625 -127.984375 15.265625 -127.984375 L 6.359375 -127.984375 L 6.359375 -129.796875 L 46.90625 -129.796875 L 90.71875 -23.265625 L 128.34375 -129.796875 L 164.890625 -129.796875 L 164.890625 -127.984375 L 161.078125 -127.984375 C 156.710938 -127.984375 153.378906 -127.015625 151.078125 -125.078125 C 148.773438 -123.140625 147.625 -119.867188 147.625 -115.265625 L 147.625 -14.546875 C 147.625 -9.941406 148.773438 -6.664062 151.078125 -4.71875 C 153.378906 -2.78125 156.710938 -1.8125 161.078125 -1.8125 L 164.890625 -1.8125 L 164.890625 0 L 113.8125 0 L 113.8125 -1.8125 L 114.71875 -1.8125 C 118.59375 -1.8125 121.648438 -2.75 123.890625 -4.625 C 126.128906 -6.507812 127.25 -9.695312 127.25 -14.1875 L 127.25 -121.078125 L 84.71875 0 L 79.078125 0 L 30.359375 -119.078125 L 30.359375 -14.546875 C 30.359375 -9.941406 31.566406 -6.664062 33.984375 -4.71875 C 36.410156 -2.78125 40.050781 -1.8125 44.90625 -1.8125 L 49.265625 -1.8125 L 49.265625 0 Z M 6.359375 0 "/></g></g></g><g fill="#3b3937" fill-opacity="1"><g transform="translate(86.231127, 248.606489)"><g><path d="M 5.640625 -2.40625 L 2.96875 -2.40625 L 2.96875 -1.9375 L 5.046875 -1.9375 C 4.890625 -1.5 4.625 -1.140625 4.25 -0.875 C 3.875 -0.59375 3.453125 -0.46875 2.984375 -0.46875 C 2.390625 -0.46875 1.890625 -0.671875 1.484375 -1.09375 C 1.078125 -1.5 0.875 -2.015625 0.875 -2.59375 C 0.875 -3.171875 1.078125 -3.671875 1.484375 -4.09375 C 1.890625 -4.5 2.390625 -4.71875 2.984375 -4.71875 C 3.421875 -4.71875 3.828125 -4.578125 4.1875 -4.328125 C 4.546875 -4.078125 4.796875 -3.765625 4.96875 -3.34375 L 5.53125 -3.34375 C 5.359375 -3.90625 5.03125 -4.359375 4.5625 -4.71875 C 4.09375 -5.0625 3.546875 -5.234375 2.9375 -5.234375 C 2.59375 -5.234375 2.28125 -5.171875 1.953125 -5.03125 C 1.640625 -4.890625 1.359375 -4.703125 1.109375 -4.46875 C 0.875 -4.21875 0.6875 -3.9375 0.546875 -3.625 C 0.40625 -3.296875 0.34375 -2.953125 0.34375 -2.59375 C 0.34375 -2.21875 0.40625 -1.875 0.546875 -1.5625 C 0.6875 -1.234375 0.875 -0.953125 1.109375 -0.703125 C 1.359375 -0.46875 1.640625 -0.28125 1.953125 -0.140625 C 2.28125 0 2.625 0.0625 2.984375 0.0625 C 3.609375 0.0625 4.171875 -0.140625 4.671875 -0.53125 C 5.171875 -0.9375 5.46875 -1.453125 5.59375 -2.09375 Z M 5.640625 -2.40625 "/></g></g></g><g fill="#3b3937" fill-opacity="1"><g transform="translate(98.028319, 248.606489)"><g><path d="M 3.625 0 L 3.625 -0.484375 L 1.09375 -0.484375 L 1.09375 -2.328125 L 3.546875 -2.328125 L 3.546875 -2.828125 L 1.09375 -2.828125 L 1.09375 -4.65625 L 3.625 -4.65625 L 3.625 -5.140625 L 0.5625 -5.140625 L 0.5625 0 Z M 3.625 0 "/></g></g></g><g fill="#3b3937" fill-opacity="1"><g transform="translate(108.032087, 248.606489)"><g><path d="M 0.15625 -4.671875 L 1.40625 -4.671875 L 1.40625 -0.015625 L 1.921875 -0.015625 L 1.921875 -4.671875 L 3.171875 -4.671875 L 3.171875 -5.15625 L 0.15625 -5.15625 Z M 0.15625 -4.671875 "/></g></g></g><g fill="#3b3937" fill-opacity="1"><g transform="translate(117.173204, 248.606489)"><g/></g></g><g fill="#3b3937" fill-opacity="1"><g transform="translate(125.027894, 248.606489)"><g><path d="M 1.09375 -3.78125 L 3.984375 0.3125 L 3.984375 -5.140625 L 3.453125 -5.140625 L 3.453125 -1.359375 L 0.5625 -5.46875 L 0.5625 0 L 1.09375 0 Z M 1.09375 -3.78125 "/></g></g></g><g fill="#3b3937" fill-opacity="1"><g transform="translate(135.394889, 248.606489)"><g><path d="M 5.09375 -2.59375 C 5.09375 -2 4.890625 -1.5 4.484375 -1.09375 C 4.0625 -0.671875 3.5625 -0.46875 2.984375 -0.46875 C 2.390625 -0.46875 1.890625 -0.671875 1.484375 -1.09375 C 1.078125 -1.5 0.875 -2 0.875 -2.59375 C 0.875 -3.15625 1.078125 -3.65625 1.484375 -4.078125 C 1.890625 -4.484375 2.390625 -4.703125 2.984375 -4.703125 C 3.5625 -4.703125 4.0625 -4.484375 4.484375 -4.078125 C 4.890625 -3.65625 5.09375 -3.15625 5.09375 -2.59375 Z M 5.625 -2.59375 C 5.625 -2.953125 5.546875 -3.296875 5.421875 -3.609375 C 5.28125 -3.9375 5.09375 -4.21875 4.84375 -4.453125 C 4.609375 -4.6875 4.328125 -4.875 4.015625 -5.015625 C 3.6875 -5.15625 3.34375 -5.21875 2.984375 -5.21875 C 2.609375 -5.21875 2.265625 -5.15625 1.953125 -5.015625 C 1.640625 -4.875 1.359375 -4.6875 1.109375 -4.453125 C 0.875 -4.21875 0.6875 -3.9375 0.546875 -3.609375 C 0.40625 -3.296875 0.34375 -2.953125 0.34375 -2.59375 C 0.34375 -2.21875 0.40625 -1.875 0.546875 -1.5625 C 0.6875 -1.234375 0.875 -0.953125 1.109375 -0.703125 C 1.359375 -0.46875 1.640625 -0.28125 1.953125 -0.140625 C 2.265625 0 2.609375 0.0625 2.984375 0.0625 C 3.34375 0.0625 3.6875 0 4.015625 -0.140625 C 4.328125 -0.28125 4.609375 -0.46875 4.84375 -0.703125 C 5.09375 -0.953125 5.28125 -1.234375 5.421875 -1.5625 C 5.546875 -1.875 5.625 -2.21875 5.625 -2.59375 Z M 5.625 -2.59375 "/></g></g></g><g fill="#3b3937" fill-opacity="1"><g transform="translate(147.176948, 248.606489)"><g><path d="M 0.15625 -4.671875 L 1.40625 -4.671875 L 1.40625 -0.015625 L 1.921875 -0.015625 L 1.921875 -4.671875 L 3.171875 -4.671875 L 3.171875 -5.15625 L 0.15625 -5.15625 Z M 0.15625 -4.671875 "/></g></g></g><g fill="#3b3937" fill-opacity="1"><g transform="translate(156.318067, 248.606489)"><g><path d="M 1.09375 0 L 1.09375 -5.140625 L 0.5625 -5.140625 L 0.5625 0 Z M 1.09375 0 "/></g></g></g><g fill="#3b3937" fill-opacity="1"><g transform="translate(163.7944, 248.606489)"><g><path d="M 5.28125 -1.578125 L 4.703125 -1.578125 C 4.515625 -1.234375 4.265625 -0.96875 3.953125 -0.765625 C 3.640625 -0.5625 3.28125 -0.46875 2.90625 -0.46875 C 2.34375 -0.46875 1.859375 -0.671875 1.453125 -1.09375 C 1.0625 -1.5 0.875 -1.984375 0.875 -2.5625 C 0.875 -3.140625 1.0625 -3.625 1.453125 -4.03125 C 1.640625 -4.234375 1.859375 -4.375 2.109375 -4.484375 C 2.34375 -4.609375 2.59375 -4.671875 2.828125 -4.671875 C 3.0625 -4.671875 3.265625 -4.640625 3.453125 -4.578125 C 4 -4.421875 4.421875 -4.078125 4.703125 -3.578125 L 5.28125 -3.578125 C 5.078125 -4.0625 4.765625 -4.453125 4.34375 -4.75 C 3.90625 -5.0625 3.421875 -5.203125 2.90625 -5.203125 C 2.1875 -5.203125 1.578125 -4.953125 1.078125 -4.421875 C 0.84375 -4.1875 0.671875 -3.890625 0.53125 -3.578125 C 0.40625 -3.265625 0.34375 -2.921875 0.34375 -2.5625 C 0.34375 -1.84375 0.578125 -1.21875 1.078125 -0.703125 C 1.578125 -0.1875 2.1875 0.078125 2.90625 0.078125 C 3.421875 0.078125 3.90625 -0.078125 4.34375 -0.375 C 4.78125 -0.6875 5.09375 -1.078125 5.28125 -1.578125 Z M 5.28125 -1.578125 "/></g></g></g><g fill="#3b3937" fill-opacity="1"><g transform="translate(175.122431, 248.606489)"><g><path d="M 3.625 0 L 3.625 -0.484375 L 1.09375 -0.484375 L 1.09375 -2.328125 L 3.546875 -2.328125 L 3.546875 -2.828125 L 1.09375 -2.828125 L 1.09375 -4.65625 L 3.625 -4.65625 L 3.625 -5.140625 L 0.5625 -5.140625 L 0.5625 0 Z M 3.625 0 "/></g></g></g><g fill="#3b3937" fill-opacity="1"><g transform="translate(185.1262, 248.606489)"><g><path d="M 4.5625 -2.578125 C 4.5625 -2.9375 4.484375 -3.28125 4.34375 -3.59375 C 4.21875 -3.921875 4.015625 -4.1875 3.78125 -4.421875 C 3.546875 -4.640625 3.265625 -4.8125 2.953125 -4.953125 C 2.625 -5.078125 2.28125 -5.140625 1.90625 -5.140625 L 0.5625 -5.140625 L 0.5625 0 L 1.90625 0 C 2.28125 0 2.625 -0.0625 2.953125 -0.1875 C 3.265625 -0.3125 3.546875 -0.5 3.78125 -0.71875 C 4.015625 -0.953125 4.21875 -1.21875 4.34375 -1.53125 C 4.484375 -1.859375 4.5625 -2.1875 4.5625 -2.578125 Z M 4.046875 -2.578125 C 4.046875 -1.984375 3.828125 -1.484375 3.421875 -1.109375 C 3.015625 -0.71875 2.515625 -0.53125 1.921875 -0.53125 L 1.09375 -0.53125 L 1.09375 -4.609375 L 1.921875 -4.609375 C 2.515625 -4.609375 3.015625 -4.421875 3.421875 -4.03125 C 3.828125 -3.640625 4.046875 -3.15625 4.046875 -2.578125 Z M 4.046875 -2.578125 "/></g></g></g><g clip-path="url(#dc4d8f941e)"><path fill="#f4f4f4" d="M 33.507812 200.605469 L 350.800781 200.605469 L 350.800781 237.679688 L 33.507812 237.679688 Z M 33.507812 200.605469 " fill-opacity="1" fill-rule="nonzero"/></g><g fill="#967f71" fill-opacity="1"><g transform="translate(50.781512, 226.787695)"><g><path d="M 33.640625 -7.796875 C 33.3125 -8.0625 32.78125 -8 32.515625 -7.671875 C 32.453125 -7.578125 25.609375 0.765625 19.328125 -2.890625 C 18.5 -3.46875 17.84375 -4.265625 17.515625 -5.1875 C 16.9375 -6.34375 16.21875 -7.765625 14.265625 -7.453125 C 13.25 -7.296875 11.6875 -6.015625 10.359375 -4.546875 C 10.3125 -4.453125 10.1875 -4.421875 10.09375 -4.453125 C 10 -4.484375 9.90625 -4.546875 9.90625 -4.65625 C 9.65625 -6.046875 8.734375 -7.203125 7.453125 -7.765625 C 6.40625 -8.03125 4.71875 -8.34375 1.203125 -4.84375 C 1.015625 -4.6875 0.765625 -4.75 0.796875 -5 C 0.796875 -5.125 1.40625 -7.609375 1.40625 -7.609375 C 1.5 -8.03125 1.234375 -8.46875 0.796875 -8.59375 C 0.375 -8.6875 -0.0625 -8.40625 -0.1875 -7.96875 L -1.65625 -1.5 C -1.75 -1.140625 -1.5625 -0.765625 -1.234375 -0.578125 C -0.859375 -0.421875 -0.453125 -0.515625 -0.25 -0.828125 C 3.859375 -5.984375 5.890625 -6.46875 6.71875 -6.34375 C 7.546875 -6.203125 8.65625 -4.546875 8.53125 -1.875 C 8.53125 -1.5 8.734375 -1.171875 9.109375 -1.078125 C 9.484375 -0.953125 9.84375 -1.109375 10.03125 -1.40625 C 11.28125 -3.5625 13.734375 -5.734375 14.5 -5.859375 C 15.25 -5.984375 15.453125 -5.703125 16.078125 -4.484375 C 16.53125 -3.25 17.390625 -2.203125 18.5 -1.5 C 19.78125 -0.734375 21.25 -0.3125 22.765625 -0.3125 C 28.609375 -0.3125 33.53125 -6.3125 33.765625 -6.65625 C 34.046875 -7 33.984375 -7.515625 33.640625 -7.796875 Z M 33.640625 -7.796875 "/></g></g></g><g fill="#967f71" fill-opacity="1"><g transform="translate(83.074941, 226.787695)"><g><path d="M 25.640625 -7.421875 C 25.328125 -7.765625 24.8125 -7.796875 24.46875 -7.484375 C 24.390625 -7.390625 15.28125 0.796875 9.625 -2.90625 C 7.390625 -4.390625 6.84375 -7.9375 6.84375 -7.96875 C 6.8125 -8.34375 6.53125 -8.625 6.171875 -8.6875 C 5.828125 -8.703125 5.453125 -8.53125 5.3125 -8.21875 C 3.859375 -5.03125 1.3125 -0.984375 0.609375 -1.4375 C 0.546875 -1.4375 0.421875 -1.5625 0.34375 -1.78125 C -0.03125 -2.796875 0.09375 -3.890625 0.609375 -4.84375 C 1.78125 -7.234375 3.921875 -8.953125 6.5 -9.59375 C 6.78125 -9.65625 7 -9.875 7.078125 -10.15625 C 7.171875 -10.421875 7.078125 -10.734375 6.90625 -10.953125 C 6.6875 -11.140625 6.40625 -11.21875 6.140625 -11.171875 C 3.0625 -10.421875 0.515625 -8.34375 -0.859375 -5.515625 C -1.59375 -4.140625 -1.6875 -2.484375 -1.109375 -1.046875 C -0.828125 -0.34375 -0.15625 0.15625 0.609375 0.15625 L 0.640625 0.15625 C 2.140625 0.125 4.015625 -1.75 5.3125 -3.765625 C 5.453125 -4.015625 5.734375 -4.140625 6.015625 -4.109375 C 6.28125 -4.109375 6.53125 -3.953125 6.65625 -3.71875 C 7.171875 -2.859375 7.875 -2.109375 8.734375 -1.59375 C 15.421875 2.859375 25.15625 -5.921875 25.578125 -6.28125 C 25.734375 -6.4375 25.828125 -6.65625 25.828125 -6.84375 C 25.859375 -7.046875 25.765625 -7.265625 25.640625 -7.421875 Z M 25.640625 -7.421875 "/></g></g></g><g fill="#967f71" fill-opacity="1"><g transform="translate(107.854705, 226.787695)"><g><path d="M 19.875 -8.28125 C 19.53125 -8.59375 19.046875 -8.59375 18.734375 -8.25 C 18.625 -8.15625 8.6875 1.96875 2.078125 -2.859375 C 0.0625 -4.328125 2.03125 -8.15625 2.0625 -8.1875 C 2.234375 -8.59375 2.078125 -9.046875 1.6875 -9.265625 C 1.28125 -9.453125 0.828125 -9.328125 0.609375 -8.921875 C 0.484375 -8.734375 -2 -3.859375 1.140625 -1.5625 C 2.578125 -0.484375 4.359375 0.09375 6.171875 0.0625 C 12.796875 0.0625 19.5 -6.78125 19.875 -7.140625 C 20.03125 -7.296875 20.125 -7.484375 20.125 -7.703125 C 20.09375 -7.90625 20.03125 -8.125 19.875 -8.28125 Z M 0.28125 -10.703125 C 0.40625 -10.703125 0.515625 -10.734375 0.640625 -10.796875 C 1.375 -11.171875 2.03125 -11.65625 2.609375 -12.234375 C 2.90625 -12.578125 2.890625 -13.0625 2.578125 -13.375 C 2.234375 -13.671875 1.75 -13.671875 1.4375 -13.34375 C 0.984375 -12.875 0.453125 -12.515625 -0.125 -12.203125 C -0.421875 -12.046875 -0.609375 -11.65625 -0.515625 -11.3125 C -0.421875 -10.953125 -0.09375 -10.703125 0.28125 -10.703125 Z M 0.28125 -10.703125 "/></g></g></g><g fill="#967f71" fill-opacity="1"><g transform="translate(126.68487, 226.787695)"><g><path d="M 24.265625 -8.4375 C 23.921875 -8.734375 23.4375 -8.734375 23.125 -8.4375 C 22.9375 -8.25 18.921875 -4.265625 13.5 -8.25 C 13.1875 -8.46875 12.796875 -8.46875 12.484375 -8.1875 C 12 -7.765625 11.46875 -7.234375 10.921875 -6.6875 C 10.703125 -6.4375 10.34375 -6.34375 10.03125 -6.46875 C 9.71875 -6.59375 9.515625 -6.875 9.484375 -7.203125 C 9.484375 -7.859375 9.390625 -8.5 9.171875 -9.109375 C 9.046875 -9.453125 8.703125 -9.65625 8.34375 -9.59375 C 7.96875 -9.5625 7.703125 -9.296875 7.640625 -8.953125 C 7.640625 -8.890625 6.65625 -3.46875 2.484375 -2.359375 C 2.109375 -2.234375 1.71875 -2.328125 1.4375 -2.609375 C 1.203125 -2.890625 0.484375 -4.109375 2.078125 -8 C 2.234375 -8.4375 2.0625 -8.890625 1.625 -9.046875 C 1.234375 -9.234375 0.734375 -9.015625 0.578125 -8.625 C -1.140625 -4.390625 -0.546875 -2.421875 0.21875 -1.53125 C 0.890625 -0.796875 1.9375 -0.515625 2.890625 -0.828125 C 5.03125 -1.40625 6.8125 -2.890625 7.828125 -4.84375 C 7.796875 -4.265625 7.703125 -3.6875 7.609375 -3.0625 C 7.578125 -2.9375 7.515625 -2.796875 7.421875 -2.671875 C 3.828125 1.84375 0.578125 7.359375 0.515625 10.828125 C 0.421875 11.75 0.765625 12.671875 1.40625 13.375 C 1.6875 13.65625 2.0625 13.828125 2.453125 13.828125 C 2.796875 13.796875 3.125 13.703125 3.40625 13.53125 C 5.421875 12.171875 8 4.328125 9.015625 -1.9375 C 9.046875 -2.078125 9.109375 -2.203125 9.203125 -2.328125 C 10.15625 -3.5 11.140625 -4.59375 12.109375 -5.578125 C 12.671875 -6.171875 13.5 -6.28125 14.203125 -5.921875 C 17.515625 -4.171875 21.5625 -4.71875 24.265625 -7.296875 C 24.421875 -7.453125 24.5 -7.671875 24.5 -7.875 C 24.5 -8.09375 24.421875 -8.28125 24.265625 -8.4375 Z M 6.75 1.40625 C 6.078125 4.484375 5.09375 7.421875 3.796875 10.28125 C 3.09375 11.6875 2.796875 12.234375 2.484375 12.171875 C 2.203125 12.140625 2.109375 11.46875 2.140625 10.859375 C 2.171875 8.625 4.015625 4.9375 6.46875 1.34375 C 6.625 1.140625 6.8125 1.203125 6.75 1.40625 Z M 6.75 1.40625 "/></g></g></g><g fill="#967f71" fill-opacity="1"><g transform="translate(149.471211, 226.787695)"><g><path d="M 25.640625 -7.421875 C 25.328125 -7.765625 24.8125 -7.796875 24.46875 -7.484375 C 24.390625 -7.390625 15.28125 0.796875 9.625 -2.90625 C 7.390625 -4.390625 6.84375 -7.9375 6.84375 -7.96875 C 6.8125 -8.34375 6.53125 -8.625 6.171875 -8.6875 C 5.828125 -8.703125 5.453125 -8.53125 5.3125 -8.21875 C 3.859375 -5.03125 1.3125 -0.984375 0.609375 -1.4375 C 0.546875 -1.4375 0.421875 -1.5625 0.34375 -1.78125 C -0.03125 -2.796875 0.09375 -3.890625 0.609375 -4.84375 C 1.78125 -7.234375 3.921875 -8.953125 6.5 -9.59375 C 6.78125 -9.65625 7 -9.875 7.078125 -10.15625 C 7.171875 -10.421875 7.078125 -10.734375 6.90625 -10.953125 C 6.6875 -11.140625 6.40625 -11.21875 6.140625 -11.171875 C 3.0625 -10.421875 0.515625 -8.34375 -0.859375 -5.515625 C -1.59375 -4.140625 -1.6875 -2.484375 -1.109375 -1.046875 C -0.828125 -0.34375 -0.15625 0.15625 0.609375 0.15625 L 0.640625 0.15625 C 2.140625 0.125 4.015625 -1.75 5.3125 -3.765625 C 5.453125 -4.015625 5.734375 -4.140625 6.015625 -4.109375 C 6.28125 -4.109375 6.53125 -3.953125 6.65625 -3.71875 C 7.171875 -2.859375 7.875 -2.109375 8.734375 -1.59375 C 15.421875 2.859375 25.15625 -5.921875 25.578125 -6.28125 C 25.734375 -6.4375 25.828125 -6.65625 25.828125 -6.84375 C 25.859375 -7.046875 25.765625 -7.265625 25.640625 -7.421875 Z M 25.640625 -7.421875 "/></g></g></g><g fill="#967f71" fill-opacity="1"><g transform="translate(174.250975, 226.787695)"><g/></g></g><g fill="#967f71" fill-opacity="1"><g transform="translate(185.659475, 226.787695)"><g><path d="M 9.96875 0 C 10.34375 0.03125 10.640625 -0.21875 10.734375 -0.515625 C 10.859375 -0.859375 10.734375 -1.234375 10.453125 -1.4375 C 10.03125 -1.75 9.65625 -2.109375 9.296875 -2.484375 C 9.109375 -2.671875 9.015625 -2.90625 9.015625 -3.15625 C 9.015625 -3.40625 9.140625 -3.625 9.296875 -3.796875 C 10.953125 -5.34375 12.234375 -7.234375 12.171875 -8.859375 C 12.109375 -10 11.40625 -11.015625 10.34375 -11.4375 C 9.9375 -11.625 9.453125 -11.46875 9.265625 -11.078125 C 9.046875 -10.671875 9.234375 -10.1875 9.625 -10 C 10.421875 -9.59375 10.546875 -9.109375 10.546875 -8.796875 C 10.609375 -7.703125 9.5625 -6.21875 8.1875 -4.96875 C 8.03125 -4.8125 7.859375 -4.75 7.640625 -4.75 C 7.421875 -4.78125 7.234375 -4.875 7.109375 -5.03125 C 6.28125 -6.140625 5.515625 -7.265625 4.8125 -8.46875 C 4.59375 -8.828125 4.5625 -9.296875 4.71875 -9.6875 C 5.0625 -10.640625 5.421875 -11.5625 5.703125 -12.296875 C 7.703125 -17.515625 8.859375 -20.796875 7.859375 -22.234375 C 7.515625 -22.734375 6.96875 -23 6.40625 -22.96875 C 6.3125 -22.96875 6.21875 -22.9375 6.171875 -22.9375 C 3.0625 -21.984375 1.28125 -20.1875 0.796875 -17.484375 C 0.375 -15.0625 1.203125 -12.203125 2.484375 -9.515625 C 2.640625 -9.171875 2.671875 -8.765625 2.546875 -8.40625 C 1.34375 -4.84375 0.859375 -2.0625 2.484375 -1.078125 C 3.71875 -0.375 5.515625 -1.171875 6.8125 -1.90625 C 7.390625 -2.234375 7.546875 -2.03125 7.640625 -1.9375 C 8.1875 -1.28125 8.828125 -0.671875 9.515625 -0.15625 C 9.625 -0.03125 9.8125 0 9.96875 0 Z M 5.921875 -3.953125 C 6.171875 -3.65625 6.21875 -3.40625 5.765625 -3.15625 C 4.421875 -2.390625 3.5625 -2.328125 3.3125 -2.453125 C 2.765625 -2.796875 3.03125 -4.421875 3.625 -6.34375 C 3.65625 -6.46875 3.734375 -6.5625 3.890625 -6.59375 C 4.015625 -6.59375 4.140625 -6.53125 4.203125 -6.40625 C 4.75 -5.546875 5.375 -4.71875 5.921875 -3.953125 Z M 2.390625 -17.203125 C 2.734375 -19.234375 5.25 -21.8125 6.53125 -21.34375 C 7.453125 -20.984375 5.25 -15.609375 4.203125 -12.875 C 4.046875 -12.515625 3.921875 -12.140625 3.796875 -11.8125 C 3.6875 -11.53125 3.40625 -11.3125 3.21875 -11.75 C 2.453125 -13.46875 2.171875 -15.359375 2.390625 -17.203125 Z M 2.390625 -17.203125 "/></g></g></g><g fill="#967f71" fill-opacity="1"><g transform="translate(198.54004, 226.787695)"><g/></g></g><g fill="#967f71" fill-opacity="1"><g transform="translate(209.94854, 226.787695)"><g><path d="M -0.609375 -10.421875 C -0.484375 -10.421875 -0.34375 -10.453125 -0.25 -10.515625 C 0.484375 -10.890625 1.171875 -11.375 1.71875 -11.96875 C 2.03125 -12.265625 2 -12.796875 1.6875 -13.09375 C 1.34375 -13.40625 0.859375 -13.40625 0.546875 -13.0625 C 0.09375 -12.609375 -0.421875 -12.203125 -0.984375 -11.9375 C -1.3125 -11.75 -1.46875 -11.375 -1.375 -11.046875 C -1.28125 -10.671875 -0.984375 -10.421875 -0.609375 -10.421875 Z M 16.15625 -8.25 C 16.015625 -8.40625 15.828125 -8.46875 15.609375 -8.46875 C 15.390625 -8.46875 15.1875 -8.375 15.03125 -8.21875 C 14.875 -8.03125 10.984375 -4.078125 5.609375 -8.0625 C 5.1875 -8.375 4.59375 -8.34375 4.234375 -7.96875 C 3.53125 -7.328125 2.765625 -6.59375 2 -5.734375 C 1.90625 -5.640625 1.78125 -5.609375 1.65625 -5.671875 C 1.53125 -5.734375 1.46875 -5.859375 1.5 -6.015625 C 1.6875 -6.96875 1.78125 -7.96875 1.75 -8.984375 C 1.625 -9.390625 1.203125 -9.65625 0.765625 -9.5625 C 0.34375 -9.453125 0.09375 -9.015625 0.1875 -8.59375 C 0.1875 -6.6875 -0.09375 -4.8125 -0.578125 -2.96875 C -0.609375 -2.765625 -0.734375 -2.546875 -0.859375 -2.359375 C -4.359375 2.109375 -7.484375 7.453125 -7.546875 10.859375 C -7.640625 11.78125 -7.296875 12.703125 -6.65625 13.40625 C -6.40625 13.671875 -6.046875 13.828125 -5.640625 13.828125 C -5.390625 13.828125 -5.125 13.765625 -4.90625 13.625 C -2.859375 12.453125 -0.609375 4.59375 0.671875 -1.5625 C 0.703125 -1.6875 0.765625 -1.8125 0.859375 -1.9375 C 2.078125 -3.5 3.4375 -4.96875 4.875 -6.375 C 4.96875 -6.46875 5.09375 -6.46875 5.21875 -6.40625 C 8.5625 -3.921875 13.21875 -4.203125 16.21875 -7.078125 C 16.34375 -7.265625 16.4375 -7.453125 16.4375 -7.671875 C 16.4375 -7.875 16.34375 -8.09375 16.15625 -8.25 Z M -5.609375 12.171875 C -5.859375 11.8125 -5.984375 11.34375 -5.953125 10.890625 C -5.890625 8.6875 -4.078125 5.03125 -1.625 1.40625 C -2.90625 6.40625 -4.59375 11.46875 -5.609375 12.171875 Z M -5.609375 12.171875 "/></g></g></g><g fill="#967f71" fill-opacity="1"><g transform="translate(225.006538, 226.787695)"><g><path d="M 25.734375 -7.875 C 25.578125 -8.03125 25.390625 -8.15625 25.1875 -8.15625 C 24.96875 -8.1875 24.75 -8.125 24.59375 -8 C 24.46875 -7.90625 12.671875 1.46875 2.828125 -2.578125 C 0.828125 -3.40625 0.734375 -4.484375 0.796875 -5.0625 C 0.796875 -5.15625 0.828125 -5.25 0.921875 -5.3125 C 0.984375 -5.375 1.109375 -5.375 1.203125 -5.34375 C 3.1875 -5.21875 5.1875 -5.734375 6.90625 -6.8125 C 8.375 -7.765625 8.625 -8.796875 8.53125 -9.484375 C 8.46875 -10.578125 7.578125 -11.46875 6.4375 -11.5 C 4.015625 -11.625 -0.03125 -8.734375 -0.703125 -5.671875 C -0.984375 -4.546875 -0.953125 -2.390625 2.203125 -1.109375 C 4.140625 -0.3125 6.171875 0.0625 8.21875 0.0625 C 17.015625 0.0625 25.1875 -6.40625 25.609375 -6.75 C 25.765625 -6.875 25.890625 -7.078125 25.890625 -7.265625 C 25.921875 -7.484375 25.859375 -7.703125 25.734375 -7.875 Z M 1.90625 -7.203125 C 3.09375 -8.859375 5.09375 -9.96875 6.34375 -9.875 C 6.6875 -9.875 6.875 -9.75 6.9375 -9.296875 C 6.96875 -8.984375 6.625 -8.5625 6.015625 -8.15625 C 4.75 -7.328125 0.984375 -5.984375 1.90625 -7.203125 Z M 1.90625 -7.203125 "/></g></g></g><g fill="#967f71" fill-opacity="1"><g transform="translate(249.571622, 226.787695)"><g><path d="M 26.8125 -7.640625 C 26.625 -7.765625 26.4375 -7.859375 26.21875 -7.859375 C 26.015625 -7.828125 25.796875 -7.734375 25.671875 -7.578125 C 25.578125 -7.515625 18.828125 -0.3125 12.96875 -2.671875 C 11.71875 -3.34375 10.703125 -4.359375 10 -5.609375 C 9.75 -6.015625 9.453125 -6.40625 9.078125 -6.78125 C 8.6875 -7.265625 8.0625 -7.546875 7.421875 -7.578125 C 5.859375 -7.703125 3.953125 -6.65625 1.6875 -4.515625 C 1.625 -4.453125 1.53125 -4.421875 1.4375 -4.484375 C 1.34375 -4.515625 1.28125 -4.625 1.3125 -4.71875 L 2 -7.734375 C 2.109375 -8.15625 1.84375 -8.625 1.40625 -8.703125 C 0.984375 -8.796875 0.546875 -8.53125 0.421875 -8.09375 L -1.109375 -1.375 C -1.203125 -1.015625 -1.015625 -0.640625 -0.671875 -0.484375 C -0.34375 -0.3125 0.0625 -0.40625 0.3125 -0.671875 C 4.421875 -5.484375 6.5 -5.953125 7.234375 -5.984375 C 7.96875 -6.015625 8.4375 -5.0625 8.6875 -4.6875 C 9.53125 -3.1875 10.828125 -1.96875 12.359375 -1.203125 C 19.234375 1.59375 26.53125 -6.171875 26.84375 -6.5 C 27.140625 -6.8125 27.109375 -7.328125 26.8125 -7.640625 Z M 26.8125 -7.640625 "/></g></g></g><g fill="#967f71" fill-opacity="1"><g transform="translate(275.118084, 226.787695)"><g><path d="M 26.8125 -7.640625 C 26.625 -7.765625 26.4375 -7.859375 26.21875 -7.859375 C 26.015625 -7.828125 25.796875 -7.734375 25.671875 -7.578125 C 25.578125 -7.515625 18.828125 -0.3125 12.96875 -2.671875 C 11.71875 -3.34375 10.703125 -4.359375 10 -5.609375 C 9.75 -6.015625 9.453125 -6.40625 9.078125 -6.78125 C 8.6875 -7.265625 8.0625 -7.546875 7.421875 -7.578125 C 5.859375 -7.703125 3.953125 -6.65625 1.6875 -4.515625 C 1.625 -4.453125 1.53125 -4.421875 1.4375 -4.484375 C 1.34375 -4.515625 1.28125 -4.625 1.3125 -4.71875 L 2 -7.734375 C 2.109375 -8.15625 1.84375 -8.625 1.40625 -8.703125 C 0.984375 -8.796875 0.546875 -8.53125 0.421875 -8.09375 L -1.109375 -1.375 C -1.203125 -1.015625 -1.015625 -0.640625 -0.671875 -0.484375 C -0.34375 -0.3125 0.0625 -0.40625 0.3125 -0.671875 C 4.421875 -5.484375 6.5 -5.953125 7.234375 -5.984375 C 7.96875 -6.015625 8.4375 -5.0625 8.6875 -4.6875 C 9.53125 -3.1875 10.828125 -1.96875 12.359375 -1.203125 C 19.234375 1.59375 26.53125 -6.171875 26.84375 -6.5 C 27.140625 -6.8125 27.109375 -7.328125 26.8125 -7.640625 Z M 26.8125 -7.640625 "/></g></g></g><g fill="#967f71" fill-opacity="1"><g transform="translate(300.664546, 226.787695)"><g><path d="M 24.265625 -8.4375 C 23.921875 -8.734375 23.4375 -8.734375 23.125 -8.4375 C 22.9375 -8.25 18.921875 -4.265625 13.5 -8.25 C 13.1875 -8.46875 12.796875 -8.46875 12.484375 -8.1875 C 12 -7.765625 11.46875 -7.234375 10.921875 -6.6875 C 10.703125 -6.4375 10.34375 -6.34375 10.03125 -6.46875 C 9.71875 -6.59375 9.515625 -6.875 9.484375 -7.203125 C 9.484375 -7.859375 9.390625 -8.5 9.171875 -9.109375 C 9.046875 -9.453125 8.703125 -9.65625 8.34375 -9.59375 C 7.96875 -9.5625 7.703125 -9.296875 7.640625 -8.953125 C 7.640625 -8.890625 6.65625 -3.46875 2.484375 -2.359375 C 2.109375 -2.234375 1.71875 -2.328125 1.4375 -2.609375 C 1.203125 -2.890625 0.484375 -4.109375 2.078125 -8 C 2.234375 -8.4375 2.0625 -8.890625 1.625 -9.046875 C 1.234375 -9.234375 0.734375 -9.015625 0.578125 -8.625 C -1.140625 -4.390625 -0.546875 -2.421875 0.21875 -1.53125 C 0.890625 -0.796875 1.9375 -0.515625 2.890625 -0.828125 C 5.03125 -1.40625 6.8125 -2.890625 7.828125 -4.84375 C 7.796875 -4.265625 7.703125 -3.6875 7.609375 -3.0625 C 7.578125 -2.9375 7.515625 -2.796875 7.421875 -2.671875 C 3.828125 1.84375 0.578125 7.359375 0.515625 10.828125 C 0.421875 11.75 0.765625 12.671875 1.40625 13.375 C 1.6875 13.65625 2.0625 13.828125 2.453125 13.828125 C 2.796875 13.796875 3.125 13.703125 3.40625 13.53125 C 5.421875 12.171875 8 4.328125 9.015625 -1.9375 C 9.046875 -2.078125 9.109375 -2.203125 9.203125 -2.328125 C 10.15625 -3.5 11.140625 -4.59375 12.109375 -5.578125 C 12.671875 -6.171875 13.5 -6.28125 14.203125 -5.921875 C 17.515625 -4.171875 21.5625 -4.71875 24.265625 -7.296875 C 24.421875 -7.453125 24.5 -7.671875 24.5 -7.875 C 24.5 -8.09375 24.421875 -8.28125 24.265625 -8.4375 Z M 6.75 1.40625 C 6.078125 4.484375 5.09375 7.421875 3.796875 10.28125 C 3.09375 11.6875 2.796875 12.234375 2.484375 12.171875 C 2.203125 12.140625 2.109375 11.46875 2.140625 10.859375 C 2.171875 8.625 4.015625 4.9375 6.46875 1.34375 C 6.625 1.140625 6.8125 1.203125 6.75 1.40625 Z M 6.75 1.40625 "/></g></g></g></svg>